# xmcd CD database file
#
# Track frame offsets:
#	150
#	19830
#	34208
#	46067
#	62928
#	79000
#	92255
#	105554
#	123915
#	137906
#	154252
#	169307
#	185931
#	203483
#	218373
#	232988
#	249981
#	260655
#
# Disc length: 3655 seconds
#
# Revision: 3
# Processed by: cddbd v1.5.2PL0 Copyright (c) Steve Scherf et al.
# Submitted via: CDex 1.74
#
DISCID=ef0e4512
DTITLE=The Best Of Kenny Rogers - The Best Of [CD02)
DYEAR=2009
DGENRE=Country
TTITLE0=Coward of the county
TTITLE1=Daytime Friends
TTITLE2=Blaze of Glory
TTITLE3=San Francisco Mabel Joy
TTITLE4=Green Green Grass of Home
TTITLE5=Sleep Tight, Goodnight Man
TTITLE6=Let's Take the Long Way Around the World (with Dottie West)
TTITLE7=Tennesse Bottle
TTITLE8=All I Ever need is You (with Dottie West)
TTITLE9=Love Will Turn You Around
TTITLE10=Making Music for Money
TTITLE11=Don't Fall in Love with a Dreamer (with Kim Carnes)
TTITLE12=All My Life
TTITLE13=Share Your Love with Me
TTITLE14=Midnight Flyer (with Dottie West)
TTITLE15=Twentieth Century Fool
TTITLE16=Anyone Who Isn't Me Tonight (with Dottie West)
TTITLE17=Every time Two Fools Collide (with Dottie West)
EXTD=YEAR: 2009
EXTT0=
EXTT1=
EXTT2=
EXTT3=
EXTT4=
EXTT5=
EXTT6=
EXTT7=
EXTT8=
EXTT9=
EXTT10=
EXTT11=
EXTT12=
EXTT13=
EXTT14=
EXTT15=
EXTT16=
EXTT17=
PLAYORDER=
